HIERARCHY
ROOT Hips
{
  OFFSET 5.84602e-005 68.8428 3.50346
  CHANNELS 6 Xposition Yposition Zposition Zrotation Xrotation Yrotation
  JOINT Spine
  {
    OFFSET 0 8.597 -4.6522
    CHANNELS 3 Zrotation Xrotation Yrotation
    JOINT Spine1
    {
      OFFSET 0 7.8454 0.4098
      CHANNELS 3 Zrotation Xrotation Yrotation
      JOINT Spine2
      {
        OFFSET 0 9.7078 -2.1609
        CHANNELS 3 Zrotation Xrotation Yrotation
        JOINT Neck
        {
          OFFSET 0 21.8761 -0.4549
          CHANNELS 3 Zrotation Xrotation Yrotation
          JOINT Head
          {
            OFFSET 0 12.3537 3.3602
            CHANNELS 3 Zrotation Xrotation Yrotation
            End Site
            {
              OFFSET 0.0001 18.9506 0.5657
            }
          }
        }
        JOINT LeftShoulder
        {
          OFFSET 2.2086 21.1115 7.2329
          CHANNELS 3 Zrotation Xrotation Yrotation
          JOINT LeftArm
          {
            OFFSET 13.1193 3.0282 -4.8998
            CHANNELS 3 Zrotation Xrotation Yrotation
            JOINT LeftForeArm
            {
              OFFSET 27.4081 -0.0973053 -0.2375
              CHANNELS 3 Zrotation Xrotation Yrotation
              JOINT LeftHand
              {
                OFFSET 22.8641 0.0662994 -0.1369
                CHANNELS 3 Zrotation Xrotation Yrotation
                JOINT LeftHandIndex1
                {
                  OFFSET 8.8614 0.775009 2.4612
                  CHANNELS 3 Zrotation Xrotation Yrotation
                  JOINT LeftHandIndex2
                  {
                    OFFSET 3.3146 -0.808304 0.5841
                    CHANNELS 3 Zrotation Xrotation Yrotation
                    JOINT LeftHandIndex3
                    {
                      OFFSET 2.2628 -0.552002 0.3989
                      CHANNELS 3 Zrotation Xrotation Yrotation
                      End Site
                      {
                        OFFSET 1.6102 -0.4807 0.2612
                      }
                    }
                  }
                }
                JOINT LeftHandMiddle1
                {
                  OFFSET 8.9937 0.895004 0.2143
                  CHANNELS 3 Zrotation Xrotation Yrotation
                  JOINT LeftHandMiddle2
                  {
                    OFFSET 4.0984 0.0113983 -0.0242
                    CHANNELS 3 Zrotation Xrotation Yrotation
                    JOINT LeftHandMiddle3
                    {
                      OFFSET 2.2716 0.00689697 -0.0138001
                      CHANNELS 3 Zrotation Xrotation Yrotation
                      End Site
                      {
                        OFFSET 2.0404 -0.1441 0.0027
                      }
                    }
                  }
                }
                JOINT LeftHandRing1
                {
                  OFFSET 8.5234 0.597198 -2.0164
                  CHANNELS 3 Zrotation Xrotation Yrotation
                  JOINT LeftHandRing2
                  {
                    OFFSET 3.7188 -0.188293 -0.2328
                    CHANNELS 3 Zrotation Xrotation Yrotation
                    JOINT LeftHandRing3
                    {
                      OFFSET 2.1191 -0.106598 -0.1332
                      CHANNELS 3 Zrotation Xrotation Yrotation
                      End Site
                      {
                        OFFSET 1.8737 -0.2304 -0.0886
                      }
                    }
                  }
                }
                JOINT LeftHandPinky1
                {
                  OFFSET 7.9094 -0.601089 -3.4825
                  CHANNELS 3 Zrotation Xrotation Yrotation
                  JOINT LeftHandPinky2
                  {
                    OFFSET 2.2874 -0.477005 -0.6314
                    CHANNELS 3 Zrotation Xrotation Yrotation
                    JOINT LeftHandPinky3
                    {
                      OFFSET 1.6774 -0.349396 -0.4633
                      CHANNELS 3 Zrotation Xrotation Yrotation
                      End Site
                      {
                        OFFSET 1.4888 -0.4091 -0.3416
                      }
                    }
                  }
                }
                JOINT LeftHandThumb1
                {
                  OFFSET 1.833 -1.3875 1.3896
                  CHANNELS 3 Zrotation Xrotation Yrotation
                  JOINT LeftHandThumb2
                  {
                    OFFSET 3.4129 -1.121 2.5732
                    CHANNELS 3 Zrotation Xrotation Yrotation
                    JOINT LeftHandThumb3
                    {
                      OFFSET 2.2474 -0.804199 1.6192
                      CHANNELS 3 Zrotation Xrotation Yrotation
                      End Site
                      {
                        OFFSET 1.6527 -0.5689 1.1317
                      }
                    }
                  }
                }
              }
            }
          }
        }
        JOINT RightShoulder
        {
          OFFSET -2.2086 21.1115 7.2329
          CHANNELS 3 Zrotation Xrotation Yrotation
          JOINT RightArm
          {
            OFFSET -13.1216 3.0287 -4.9007
            CHANNELS 3 Zrotation Xrotation Yrotation
            JOINT RightForeArm
            {
              OFFSET -27.4081 -0.0973053 -0.2375
              CHANNELS 3 Zrotation Xrotation Yrotation
              JOINT RightHand
              {
                OFFSET -22.8641 0.0664063 -0.1369
                CHANNELS 3 Zrotation Xrotation Yrotation
                JOINT RightHandIndex1
                {
                  OFFSET -8.8614 0.774994 2.4612
                  CHANNELS 3 Zrotation Xrotation Yrotation
                  JOINT RightHandIndex2
                  {
                    OFFSET -3.3146 -0.808304 0.5841
                    CHANNELS 3 Zrotation Xrotation Yrotation
                    JOINT RightHandIndex3
                    {
                      OFFSET -2.2628 -0.552002 0.3989
                      CHANNELS 3 Zrotation Xrotation Yrotation
                      End Site
                      {
                        OFFSET -1.6102 -0.4807 0.2612
                      }
                    }
                  }
                }
                JOINT RightHandMiddle1
                {
                  OFFSET -8.9937 0.894989 0.2143
                  CHANNELS 3 Zrotation Xrotation Yrotation
                  JOINT RightHandMiddle2
                  {
                    OFFSET -4.0984 0.0113983 -0.0242
                    CHANNELS 3 Zrotation Xrotation Yrotation
                    JOINT RightHandMiddle3
                    {
                      OFFSET -2.2716 0.00691223 -0.0138001
                      CHANNELS 3 Zrotation Xrotation Yrotation
                      End Site
                      {
                        OFFSET -2.0404 -0.1441 0.0027
                      }
                    }
                  }
                }
                JOINT RightHandRing1
                {
                  OFFSET -8.5234 0.597198 -2.0164
                  CHANNELS 3 Zrotation Xrotation Yrotation
                  JOINT RightHandRing2
                  {
                    OFFSET -3.7188 -0.188309 -0.2328
                    CHANNELS 3 Zrotation Xrotation Yrotation
                    JOINT RightHandRing3
                    {
                      OFFSET -2.1191 -0.106598 -0.1332
                      CHANNELS 3 Zrotation Xrotation Yrotation
                      End Site
                      {
                        OFFSET -1.8737 -0.2304 -0.0886
                      }
                    }
                  }
                }
                JOINT RightHandPinky1
                {
                  OFFSET -7.9094 -0.601105 -3.4825
                  CHANNELS 3 Zrotation Xrotation Yrotation
                  JOINT RightHandPinky2
                  {
                    OFFSET -2.2874 -0.477005 -0.6314
                    CHANNELS 3 Zrotation Xrotation Yrotation
                    JOINT RightHandPinky3
                    {
                      OFFSET -1.6774 -0.349396 -0.4633
                      CHANNELS 3 Zrotation Xrotation Yrotation
                      End Site
                      {
                        OFFSET -1.4888 -0.4091 -0.3416
                      }
                    }
                  }
                }
                JOINT RightHandThumb1
                {
                  OFFSET -1.833 -1.38751 1.3896
                  CHANNELS 3 Zrotation Xrotation Yrotation
                  JOINT RightHandThumb2
                  {
                    OFFSET -3.41299 -1.12099 2.5732
                    CHANNELS 3 Zrotation Xrotation Yrotation
                    JOINT RightHandThumb3
                    {
                      OFFSET -2.24741 -0.804108 1.6192
                      CHANNELS 3 Zrotation Xrotation Yrotation
                      End Site
                      {
                        OFFSET -1.6527 -0.5689 1.1317
                      }
                    }
                  }
                }
              }
            }
          }
        }
      }
    }
  }
  JOINT RightUpLeg
  {
    OFFSET -9.1966 3.8861 -0.7581
    CHANNELS 3 Zrotation Xrotation Yrotation
    JOINT RightLeg
    {
      OFFSET -0.7359 -41.0265 0
      CHANNELS 3 Zrotation Xrotation Yrotation
      JOINT RightFoot
      {
        OFFSET 0 -40.2855 0
        CHANNELS 3 Zrotation Xrotation Yrotation
        JOINT RightToeBase
        {
          OFFSET 0 -5.6122 11.7359
          CHANNELS 3 Zrotation Xrotation Yrotation
          End Site
          {
            OFFSET 0 0 7.8731
          }
        }
      }
    }
  }
  JOINT LeftUpLeg
  {
    OFFSET 9.1965 3.8864 -0.7581
    CHANNELS 3 Zrotation Xrotation Yrotation
    JOINT LeftLeg
    {
      OFFSET 0.7359 -41.0268 0
      CHANNELS 3 Zrotation Xrotation Yrotation
      JOINT LeftFoot
      {
        OFFSET 0 -40.2855 0
        CHANNELS 3 Zrotation Xrotation Yrotation
        JOINT LeftToeBase
        {
          OFFSET 0 -5.6122 11.7359
          CHANNELS 3 Zrotation Xrotation Yrotation
          End Site
          {
            OFFSET 0 0 7.8731
          }
        }
      }
    }
  }
}
MOTION
Frames:	4
Frame Time:	0.0333333
5.84602e-005 68.8428 3.50346 0 0 -0 0 0 -0 0 0 -0 0 0 -0 0 0 -0 0 0 -0 0 0 -0 0 0 -0 0 0 -0 0 0 -0 0 0 -0 0 0 -0 0 0 -0 0 0 -0 -0.0146107 -8.87603e-005 -2.63497e-007 2.99804e-018 -2.42657e-020 -1.42182e-022 0 0 -0 -0.0187562 -0.001176 5.858e-005 5.06224e-018 3.88251e-019 1.21329e-020 0 0 -0 -0.012269 -0.00324817 0.000675346 -1.74678e-018 3.88251e-019 -0 0 0 -0 0 0 -0 0 0 -0 0 0 -0 0 0 -0 0 0 -0 0 0 -0 0 0 -0 0 0 -0 0 0 -0 0 0 -0 0.0149955 -9.10982e-005 2.64101e-007 -9.69331e-018 1.21329e-020 -4.7394e-023 0 0 -0 0.0189956 -0.00119102 -5.96516e-005 -5.41541e-019 0 2.42657e-020 0 0 -0 0.0122698 -0.00324857 -0.000673756 -2.00796e-019 0 -1.94126e-019 0 0 -0 0 0 -0 0 0 -0 3.39842 1.33031 -0.0637918 -5.65207e-008 0.834868 -0.000436188 -3.39935 -2.16518 -0.0642563 -8.89002e-024 -1.18485e-023 -1.48106e-024 -3.39844 1.35642 0.0640283 -3.18788e-007 0.782166 -0.000588827 3.39931 -2.13858 0.0634662 1.1399e-023 0 -0 
-0.410481 66.4837 4.66057 0 0.0223189 -0 -0.158166 3.32277 -0.0638175 -0.31341 6.6457 -0.118729 -0.31341 6.6457 -0.118729 6.84099e-006 -0.200462 -2.60361e-006 -4.30298e-007 -0.150488 -7.57904e-008 -10.8761 -5.28917 5.34521 -27.1843 14.753 -29.8741 -5.14204 -13.5958 -16.9838 -3.93767 1.91433e-006 2.14268e-006 -3.22932e-006 1.50388e-007 7.22711e-007 -2.32462e-007 7.20157e-007 3.93928e-007 -2.32462e-007 7.20157e-007 3.93928e-007 -3.22932e-006 1.50388e-007 7.22711e-007 -0.0146197 -8.7779e-005 1.60661e-006 -2.32466e-007 7.20106e-007 3.9402e-007 -3.22932e-006 1.50388e-007 7.22711e-007 -0.0187827 -0.00117782 5.15526e-005 -2.32463e-007 7.20092e-007 3.94049e-007 -3.22932e-006 1.50388e-007 7.22711e-007 -0.0121851 -0.0032271 0.000675808 -2.3245e-007 7.20115e-007 3.94012e-007 -3.22932e-006 1.50388e-007 7.22711e-007 -2.32462e-007 7.20157e-007 3.93928e-007 -2.32462e-007 7.20157e-007 3.93928e-007 4.51556 -0.206809 2.32924 37.6638 23.3933 17.4442 5.12079 -13.6021 16.8853 4.0597 0.00435974 -0.00100275 -1.59028e-015 0 1.59028e-015 -3.84508e-007 1.48084e-007 1.84074e-006 3.97569e-015 -1.27222e-014 1.59028e-015 -1.59028e-015 0 1.59028e-015 0.0150178 -9.00431e-005 -9.26112e-007 1.59028e-015 3.18055e-015 -0 -1.59028e-015 0 1.59028e-015 0.0189879 -0.00119107 -5.79705e-005 -3.18055e-015 0 1.59028e-015 -1.59028e-015 0 1.59028e-015 0.0122682 -0.00324872 -0.000678708 1.17711e-006 -4.72247e-008 3.81251e-007 -1.59028e-015 0 1.59028e-015 -3.84508e-007 1.48084e-007 1.84074e-006 3.97569e-015 -1.27222e-014 1.59028e-015 1.5313 1.29336 -5.09413 1.68701 -0.00833949 0.0514287 4.04195 1.39464 -4.05835 -1.73206e-006 2.89896e-007 -6.78591e-008 5.81567 -0.0251022 6.37907 1.70126 1.68649 -0.387663 -4.24977 7.55647 5.62352 -2.11592e-007 2.22121e-008 -1.60845e-008 
-0.732301 64.6381 5.58509 0 0 -0 -0.26431 5.8981 -0.135634 -0.518655 11.7967 -0.245713 -0.518655 11.7967 -0.245713 6.48251e-007 -0.400387 -9.66591e-007 4.95651e-008 -0.267539 -1.08168e-007 -18.728 -9.32578 9.51493 -38.8388 18.3414 -54.9614 -14.7844 -21.7884 -31.7922 -7.00033 3.64844e-008 -3.05451e-006 6.05967e-007 -1.01055e-006 -1.16092e-006 -3.18055e-015 0 6.36111e-015 6.05967e-007 -1.01055e-006 -1.16092e-006 6.05967e-007 -1.01055e-006 -1.16092e-006 -0.0146299 -9.19807e-005 -2.67441e-006 6.0602e-007 -1.0104e-006 -1.16105e-006 6.05967e-007 -1.01055e-006 -1.16092e-006 -0.0187297 -0.00117465 5.88264e-005 6.06023e-007 -1.01035e-006 -1.16109e-006 6.05967e-007 -1.01055e-006 -1.16092e-006 -0.0122914 -0.00325112 0.000677585 6.05973e-007 -1.01041e-006 -1.16105e-006 6.05967e-007 -1.01055e-006 -1.16092e-006 -3.18055e-015 0 6.36111e-015 6.05967e-007 -1.01055e-006 -1.16092e-006 8.08022 -0.25199 4.15383 55.3924 37.1443 36.6124 14.7802 -21.7898 31.7878 6.99683 -1.52337e-006 -3.69621e-006 2.84177e-008 5.53845e-008 -8.66731e-008 1.13671e-007 2.21538e-007 -3.46693e-007 -5.68354e-008 -1.10769e-007 1.73346e-007 2.84177e-008 5.53845e-008 -8.66731e-008 0.0150066 -9.46623e-005 -2.54849e-006 -5.68349e-008 -1.10746e-007 1.73361e-007 2.84177e-008 5.53845e-008 -8.66731e-008 0.0190037 -0.00119082 -5.87045e-005 -5.68331e-008 -1.1074e-007 1.73365e-007 2.84177e-008 5.53845e-008 -8.66731e-008 0.0123173 -0.00325873 -0.000679815 -5.68295e-008 -1.10751e-007 1.7336e-007 2.84177e-008 5.53845e-008 -8.66731e-008 1.13671e-007 2.21538e-007 -3.46693e-007 -5.68354e-008 -1.10769e-007 1.73346e-007 0.0310537 0.954488 -9.00836 2.99911 0.0485777 0.0719235 10.1232 3.75364 -7.18805 3.08116e-015 1.59028e-015 3.18055e-015 13.1925 -1.34296 11.276 3.00321 2.96123 -0.772502 -11.5503 14.6098 10.1221 -4.16128e-007 7.87409e-008 -5.14364e-008 
-0.77774 64.3831 5.81193 -0 -0.15623 -0 -0.270872 6.23253 -0.142343 -0.530816 12.4657 -0.257142 -0.530816 12.4657 -0.257141 -5.66654e-006 -0.59999 2.20468e-006 5.786e-008 -0.284254 -1.28948e-007 -20.1144 -9.9379 9.83252 -40.0457 18.271 -57.7756 -16.345 -22.5729 -33.8822 -7.43784 4.33225e-006 -2.63616e-006 1.59028e-015 0 -6.36111e-015 -1.59028e-015 -1.59028e-015 -6.36111e-015 -4.77083e-015 -1.59028e-015 -3.18055e-015 1.59028e-015 0 -6.36111e-015 -0.0146018 -9.02574e-005 3.42442e-006 -1.20444e-006 5.07673e-008 -1.01177e-007 1.59028e-015 0 -6.36111e-015 -0.0187524 -0.00117438 5.75716e-005 -1.59028e-015 -3.97569e-015 1.27222e-014 1.59028e-015 0 -6.36111e-015 -0.01227 -0.00325444 0.000678806 -1.20422e-006 5.04761e-008 -1.01082e-007 1.59028e-015 0 -6.36111e-015 -1.59028e-015 -1.59028e-015 -6.36111e-015 -4.77083e-015 -1.59028e-015 -3.18055e-015 8.7449 0.185009 4.46485 56.9114 38.4413 39.8663 16.5801 -22.415 34.5644 6.56662 -0.0305001 0.00713605 8.4942e-008 1.51375e-007 -2.68986e-007 2.8314e-008 5.04584e-008 -8.9662e-008 8.4942e-008 1.51375e-007 -2.68986e-007 8.4942e-008 1.51375e-007 -2.68986e-007 0.0149987 -9.41434e-005 -3.39133e-006 8.49424e-008 1.5134e-007 -2.69006e-007 8.4942e-008 1.51375e-007 -2.68986e-007 0.0189961 -0.00119037 -6.14647e-005 8.49399e-008 1.51331e-007 -2.69012e-007 8.4942e-008 1.51375e-007 -2.68986e-007 0.0122599 -0.00324379 -0.000673086 8.4934e-008 1.51347e-007 -2.69005e-007 8.4942e-008 1.51375e-007 -2.68986e-007 2.8314e-008 5.04584e-008 -8.9662e-008 8.4942e-008 1.51375e-007 -2.68986e-007 -0.204245 1.15696 -9.59629 3.18649 0.0681582 0.10273 11.0125 3.97654 -7.62625 6.17117e-008 -4.18859e-007 5.16825e-008 14.2563 -1.34 11.9959 3.09767 3.1591 -0.839903 -12.7004 15.3639 10.7032 -8.30064e-007 1.66747e-007 -1.06175e-007 
